<svg width="110" height="110" viewBox="0 0 110 110" fill="none" xmlns="http://www.w3.org/2000/svg" xmlns:xlink="http://www.w3.org/1999/xlink">
<path d="M46.469,14.53C46.15,14.21 45.771,13.956 45.354,13.783C44.936,13.61 44.489,13.521 44.037,13.521C43.586,13.521 43.138,13.61 42.721,13.783C42.304,13.956 41.925,14.21 41.606,14.53L0.392,55.744C0.073,56.063 -0.18,56.443 -0.352,56.86C-0.524,57.277 -0.612,57.724 -0.611,58.175L-0.611,106.259C-0.611,107.17 -0.249,108.043 0.395,108.687C1.039,109.331 1.912,109.693 2.823,109.693L33.734,109.693C34.645,109.693 35.518,109.331 36.162,108.687C36.806,108.043 37.168,107.17 37.168,106.259L37.168,78.783L50.906,78.783L50.906,106.259C50.906,107.17 51.268,108.043 51.912,108.687C52.556,109.331 53.43,109.693 54.341,109.693L85.252,109.693C86.162,109.693 87.036,109.331 87.68,108.687C88.324,108.043 88.686,107.17 88.686,106.259L88.686,58.175C88.687,57.724 88.599,57.277 88.427,56.86C88.255,56.443 88.002,56.063 87.683,55.744L78.383,46.45L78.383,23.83C78.383,22.919 78.021,22.046 77.377,21.402C76.733,20.758 75.859,20.396 74.948,20.396L68.079,20.396C67.168,20.396 66.295,20.758 65.65,21.402C65.006,22.046 64.644,22.919 64.644,23.83L64.644,32.712L46.469,14.53ZM6.258,102.824L6.258,59.597L44.037,21.818L81.817,59.597L81.817,102.824L57.775,102.824L57.775,75.348C57.775,74.437 57.414,73.564 56.769,72.92C56.125,72.275 55.252,71.914 54.341,71.914L33.734,71.914C32.823,71.914 31.949,72.275 31.305,72.92C30.661,73.564 30.299,74.437 30.299,75.348L30.299,102.824L6.258,102.824Z" fill="#E6E6E6" fill-opacity="0.6"/>
<path d="M67.076,14.53C66.757,14.21 66.378,13.956 65.96,13.783C65.543,13.61 65.096,13.521 64.644,13.521C64.192,13.521 63.745,13.61 63.328,13.783C62.91,13.956 62.531,14.21 62.212,14.53L20.998,55.744C20.679,56.063 20.427,56.443 20.255,56.86C20.082,57.277 19.994,57.724 19.995,58.175L19.995,106.259C19.995,107.17 20.357,108.043 21.001,108.687C21.645,109.331 22.519,109.693 23.43,109.693L54.34,109.693C55.251,109.693 56.125,109.331 56.769,108.687C57.413,108.043 57.775,107.17 57.775,106.259L57.775,78.783L71.513,78.783L71.513,106.259C71.513,107.17 71.875,108.043 72.519,108.687C73.163,109.331 74.037,109.693 74.948,109.693L105.858,109.693C106.769,109.693 107.643,109.331 108.287,108.687C108.931,108.043 109.293,107.17 109.293,106.259L109.293,58.175C109.294,57.724 109.205,57.277 109.033,56.86C108.861,56.443 108.609,56.063 108.29,55.744L98.989,46.45L98.989,23.83C98.989,22.919 98.627,22.046 97.983,21.402C97.339,20.758 96.466,20.396 95.555,20.396L88.686,20.396C87.775,20.396 86.901,20.758 86.257,21.402C85.613,22.046 85.251,22.919 85.251,23.83L85.251,32.712L67.076,14.53ZM26.864,102.824L26.864,59.597L64.644,21.818L102.424,59.597L102.424,102.824L78.382,102.824L78.382,75.348C78.382,74.437 78.02,73.564 77.376,72.92C76.732,72.275 75.858,71.914 74.948,71.914L54.34,71.914C53.43,71.914 52.556,72.275 51.912,72.92C51.268,73.564 50.906,74.437 50.906,75.348L50.906,102.824L26.864,102.824Z" fill="#FF9505"/>
</svg>
